<svg width="60" height="45" viewBox="0 0 60 45" fill="none" xmlns="http://www.w3.org/2000/svg">
<path fill-rule="evenodd" clip-rule="evenodd" d="M9 34.5H27C27.552 34.5 28 34.052 28 33.5C28 32.948 27.552 32.5 27 32.5H9C8.448 32.5 8 32.948 8 33.5C8 34.052 8.448 34.5 9 34.5ZM35 30.5C35.552 30.5 36 30.052 36 29.5C36 28.948 35.552 28.5 35 28.5H27C26.448 28.5 26 28.948 26 29.5C26 30.052 26.448 30.5 27 30.5H35ZM9 30.5H23C23.552 30.5 24 30.052 24 29.5C24 28.948 23.552 28.5 23 28.5H9C8.448 28.5 8 28.948 8 29.5C8 30.052 8.448 30.5 9 30.5ZM59 18.5H5C4.448 18.5 4 18.948 4 19.5C4 20.052 4.448 20.5 5 20.5H58V39.5C58 41.154 56.654 42.5 55 42.5H5C3.609 42.5 2 41.474 2 39.5V17.5C2 16.948 1.552 16.5 1 16.5C0.448 16.5 0 16.948 0 17.5V39.5C0 41.903 1.947 44.5 5 44.5H55C57.757 44.5 60 42.257 60 39.5V19.5C60 18.948 59.552 18.5 59 18.5ZM60 5.5V15.5C60 16.052 59.552 16.5 59 16.5C58.448 16.5 58 16.052 58 15.5V5.5C58 3.846 56.654 2.5 55 2.5H5C3.346 2.5 2 3.846 2 5.5V10.5H55C55.552 10.5 56 10.948 56 11.5C56 12.052 55.552 12.5 55 12.5H1C0.448 12.5 0 12.052 0 11.5V5.5C0 2.743 2.243 0.5 5 0.5H55C57.757 0.5 60 2.743 60 5.5Z" fill="black"/>
</svg>
