<svg width="60" height="61" viewBox="0 0 60 61" fill="none" xmlns="http://www.w3.org/2000/svg">
<path fill-rule="evenodd" clip-rule="evenodd" d="M22 47.5C22 46.948 22.448 46.5 23 46.5H29C29.552 46.5 30 46.948 30 47.5C30 48.052 29.552 48.5 29 48.5H23C22.448 48.5 22 48.052 22 47.5ZM22 51.5C22 50.948 22.448 50.5 23 50.5H29.5C30.052 50.5 30.5 50.948 30.5 51.5C30.5 52.052 30.052 52.5 29.5 52.5H23C22.448 52.5 22 52.052 22 51.5ZM22 55.5C22 54.948 22.448 54.5 23 54.5H31.234C31.787 54.5 32.234 54.948 32.234 55.5C32.234 56.052 31.787 56.5 31.234 56.5H23C22.448 56.5 22 56.052 22 55.5ZM36 59.5C36 60.052 35.552 60.5 35 60.5H23C22.448 60.5 22 60.052 22 59.5C22 58.948 22.448 58.5 23 58.5H35C35.552 58.5 36 58.948 36 59.5ZM16 47.5C16 48.052 15.552 48.5 15 48.5H1C0.448 48.5 0 48.052 0 47.5C0 46.948 0.448 46.5 1 46.5H15C15.552 46.5 16 46.948 16 47.5ZM16 51.5C16 52.052 15.552 52.5 15 52.5H1C0.448 52.5 0 52.052 0 51.5C0 50.948 0.448 50.5 1 50.5H15C15.552 50.5 16 50.948 16 51.5ZM16 55.5C16 56.052 15.552 56.5 15 56.5H1C0.448 56.5 0 56.052 0 55.5C0 54.948 0.448 54.5 1 54.5H15C15.552 54.5 16 54.948 16 55.5ZM16 59.5C16 60.052 15.552 60.5 15 60.5H1C0.448 60.5 0 60.052 0 59.5C0 58.948 0.448 58.5 1 58.5H15C15.552 58.5 16 58.948 16 59.5ZM20 47.5V59.5C20 60.052 19.552 60.5 19 60.5C18.448 60.5 18 60.052 18 59.5V47.5C18 46.948 18.448 46.5 19 46.5C19.552 46.5 20 46.948 20 47.5ZM3.213 44.021C1.081 39.806 0 35.256 0 30.5C0 13.958 13.458 0.5 30 0.5C46.542 0.5 60 13.958 60 30.5C60 31.782 60 33.641 59.658 35.021C59.525 35.558 58.982 35.885 58.447 35.752C57.911 35.619 57.584 35.077 57.717 34.541C58 33.397 58 31.685 58 30.552C58 15.061 45.439 2.5 30 2.5C14.561 2.5 2 15.061 2 30.5C2 34.94 3.009 39.186 4.998 43.119C5.247 43.612 5.05 44.213 4.557 44.463C4.412 44.536 4.258 44.57 4.106 44.57C3.741 44.57 3.389 44.37 3.213 44.021ZM53.939 31.642C54.011 31.264 54.007 30.736 54 30.581C53.998 30.544 53.999 30.49 54.001 30.454C54 17.266 43.234 6.5 30 6.5C16.766 6.5 6 17.266 6 30.5C6 34.933 7.218 39.263 9.521 43.021C9.81 43.492 9.663 44.108 9.191 44.396C9.028 44.497 8.848 44.544 8.67 44.544C8.333 44.544 8.005 44.375 7.816 44.066C5.32 39.993 4 35.302 4 30.5C4 16.164 15.664 4.5 30 4.5C44.336 4.5 56 16.164 56 30.5C56.001 30.574 56.032 31.34 55.904 32.014C55.802 32.556 55.282 32.916 54.736 32.811C54.193 32.708 53.836 32.185 53.939 31.642ZM44 43.5C44 44.603 44.897 45.5 46 45.5C48.206 45.5 50 47.294 50 49.5C50 51.358 48.72 52.911 47 53.358V53.5C47 54.052 46.552 54.5 46 54.5C45.448 54.5 45 54.052 45 53.5V53.358C43.28 52.911 42 51.358 42 49.5C42 48.948 42.448 48.5 43 48.5C43.552 48.5 44 48.948 44 49.5C44 50.603 44.897 51.5 46 51.5C47.103 51.5 48 50.603 48 49.5C48 48.397 47.103 47.5 46 47.5C43.794 47.5 42 45.706 42 43.5C42 41.642 43.28 40.089 45 39.642V39.5C45 38.948 45.448 38.5 46 38.5C46.552 38.5 47 38.948 47 39.5V39.642C48.72 40.089 50 41.642 50 43.5C50 44.052 49.552 44.5 49 44.5C48.448 44.5 48 44.052 48 43.5C48 42.397 47.103 41.5 46 41.5C44.897 41.5 44 42.397 44 43.5ZM46 58.5C39.383 58.5 34 53.117 34 46.5C34 39.883 39.383 34.5 46 34.5C52.617 34.5 58 39.883 58 46.5C58 53.117 52.617 58.5 46 58.5ZM46 32.5C38.28 32.5 32 38.78 32 46.5C32 54.22 38.28 60.5 46 60.5C53.72 60.5 60 54.22 60 46.5C60 38.78 53.72 32.5 46 32.5ZM12 31.501H9.002C8.45 31.501 8.002 31.053 8.002 30.501C8.002 29.949 8.45 29.501 9.002 29.501H12C12.552 29.501 13 29.949 13 30.501C13 31.054 12.552 31.501 12 31.501ZM10.812 41.493C10.536 41.014 10.699 40.403 11.177 40.126L12.042 39.626C12.521 39.348 13.132 39.513 13.409 39.992C13.685 40.47 13.521 41.082 13.043 41.358L12.178 41.858C12.021 41.949 11.849 41.992 11.679 41.992C11.333 41.992 10.997 41.813 10.812 41.493ZM13.492 20.742C13.307 21.063 12.971 21.242 12.625 21.242C12.456 21.242 12.284 21.199 12.126 21.108L11.26 20.608C10.782 20.332 10.618 19.721 10.894 19.242C11.17 18.764 11.78 18.6 12.26 18.876L13.126 19.376C13.604 19.652 13.768 20.264 13.492 20.742ZM20.374 11.677L20.874 12.542C21.15 13.021 20.986 13.632 20.508 13.909C20.351 14 20.179 14.043 20.009 14.043C19.663 14.043 19.327 13.864 19.142 13.543L18.642 12.678C18.366 12.2 18.529 11.588 19.007 11.312C19.485 11.035 20.097 11.199 20.374 11.677ZM41.258 11.394C41.736 11.67 41.9 12.281 41.624 12.76L41.124 13.626C40.938 13.947 40.603 14.126 40.257 14.126C40.087 14.126 39.916 14.083 39.758 13.992C39.28 13.716 39.116 13.104 39.392 12.626L39.892 11.76C40.167 11.281 40.777 11.117 41.258 11.394ZM49.188 19.507C49.464 19.986 49.301 20.597 48.823 20.874L47.958 21.374C47.8 21.465 47.628 21.508 47.458 21.508C47.112 21.508 46.776 21.329 46.591 21.008C46.315 20.53 46.479 19.918 46.957 19.642L47.822 19.142C48.299 18.864 48.912 19.029 49.188 19.507ZM30 29.5C30.551 29.5 31 29.949 31 30.5C31 31.051 30.551 31.5 30 31.5C29.449 31.5 29 31.051 29 30.5C29 29.949 29.449 29.5 30 29.5ZM30 33.5C31.302 33.5 32.401 32.662 32.816 31.5H34C34.552 31.5 35 31.052 35 30.5C35 29.948 34.552 29.5 34 29.5H32.816C32.514 28.653 31.847 27.986 31 27.684V9.5C31 8.948 30.552 8.5 30 8.5C29.448 8.5 29 8.948 29 9.5V27.684C28.153 27.986 27.486 28.653 27.184 29.5H16C15.448 29.5 15 29.948 15 30.5C15 31.052 15.448 31.5 16 31.5H27.185C27.599 32.662 28.698 33.5 30 33.5Z" fill="black"/>
</svg>
