<svg width="41" height="32" viewBox="0 0 41 32" fill="none" xmlns="http://www.w3.org/2000/svg">
<path d="M22.5281 31.5294H9.56262C4.78786 31.5294 0.918945 27.5975 0.918945 22.7451V16.8877C0.918945 6.93331 7.83389 5.17645 11.2914 5.17645H16.4776C18.1579 5.17645 19.935 6.05488 19.935 7.81175V8.69018C19.935 10.447 18.2063 11.3255 16.4776 11.3255H13.0201C13.0201 11.3255 11.8378 15.5307 9.47329 16.9859" stroke="#014098" stroke-linecap="round" stroke-linejoin="round"/>
<path d="M18.3901 20.7059H29.2235C30.6035 20.7059 31.7235 21.9708 31.7235 23.5294C31.7235 25.0899 30.6035 26.3529 29.2235 26.3529H22.5568" stroke="#014098" stroke-linecap="round" stroke-linejoin="round"/>
<path d="M18.3901 26.3529H22.7005C24.1281 26.3529 25.2867 27.5124 25.2867 28.9411C25.2867 30.3716 24.1281 31.5294 22.7005 31.5294H20.1143" stroke="#014098" stroke-linecap="round" stroke-linejoin="round"/>
<path d="M39.9994 7.05884H19.7695" stroke="#014098" stroke-linecap="round" stroke-linejoin="round"/>
<path d="M9.65479 5.08158V2.99999C9.65479 1.60376 10.7877 0.470581 12.1835 0.470581H37.4709C38.8667 0.470581 39.9996 1.60376 39.9996 2.99999V18.1765C39.9996 19.5744 38.8667 20.7059 37.4709 20.7059H12.1835C10.7877 20.7059 9.65479 19.5744 9.65479 18.1765V16.8055" stroke="#014098" stroke-linecap="round" stroke-linejoin="round"/>
<path d="M34.4823 12.2353H29.4248" stroke="#014098" stroke-linecap="round" stroke-linejoin="round"/>
</svg>
