<svg width="53" height="52" viewBox="0 0 53 52" fill="none" xmlns="http://www.w3.org/2000/svg">
<path fill-rule="evenodd" clip-rule="evenodd" d="M8.73263 7.7539C8.79447 7.8678 8.83068 7.99785 8.83333 8.13555V8.15085V42.1492C8.83333 42.6184 8.43848 42.9992 7.95 42.9992C7.46152 42.9992 7.06667 42.6184 7.06667 42.1492V8.99915H4.41667C3.92818 8.99915 3.53333 8.61835 3.53333 8.14915C3.53333 7.67995 3.92818 7.29915 4.41667 7.29915H6.52077L4.41667 3.24975L1.76667 8.34975V47.2492C1.76667 48.6551 2.95563 49.7992 4.41667 49.7992C5.8777 49.7992 7.06667 48.6551 7.06667 47.2492V46.3992H4.41667C3.92818 46.3992 3.53333 46.0184 3.53333 45.5492C3.53333 45.08 3.92818 44.6992 4.41667 44.6992H7.95C8.43848 44.6992 8.83333 45.08 8.83333 45.5492V47.2492C8.83333 49.5926 6.85202 51.4992 4.41667 51.4992C1.98132 51.4992 0 49.5926 0 47.2492V8.14915C0 8.0174 0.0318 7.8865 0.09275 7.7692L3.62608 0.9692C3.92642 0.3929 4.90692 0.3929 5.20637 0.9692L8.73263 7.7539ZM3.53333 11.5491V42.1492C3.53333 42.6184 3.92818 42.9992 4.41667 42.9992C4.90515 42.9992 5.3 42.6184 5.3 42.1492V11.5491C5.3 11.08 4.90515 10.6992 4.41667 10.6992C3.92818 10.6992 3.53333 11.08 3.53333 11.5491ZM24.7325 46.4C22.7838 46.4 21.1991 44.8751 21.1991 43C21.1991 41.1249 22.7838 39.6 24.7325 39.6C26.6811 39.6 28.2658 41.1249 28.2658 43C28.2658 44.8751 26.6811 46.4 24.7325 46.4ZM24.7325 44.7C25.7059 44.7 26.4991 43.9375 26.4991 43C26.4991 42.0625 25.7059 41.3 24.7325 41.3C23.7581 41.3 22.9658 42.0625 22.9658 43C22.9658 43.9375 23.7581 44.7 24.7325 44.7ZM30.9158 0.5H18.5491C16.1138 0.5 14.1325 2.40655 14.1325 4.75V35.35C14.1325 35.8192 14.5273 36.2 15.0158 36.2H20.3158C20.8043 36.2 21.1991 35.8192 21.1991 35.35C21.1991 34.8808 20.8043 34.5 20.3158 34.5H15.8991V32.8H16.7825C17.2709 32.8 17.6658 32.4192 17.6658 31.95C17.6658 31.4808 17.2709 31.1 16.7825 31.1H15.8991V29.4H16.7825C17.2709 29.4 17.6658 29.0192 17.6658 28.55C17.6658 28.0808 17.2709 27.7 16.7825 27.7H15.8991V26H16.7825C17.2709 26 17.6658 25.6192 17.6658 25.15C17.6658 24.6808 17.2709 24.3 16.7825 24.3H15.8991V22.6H20.3158C20.8043 22.6 21.1991 22.2192 21.1991 21.75C21.1991 21.2808 20.8043 20.9 20.3158 20.9H15.8991V19.2H16.7825C17.2709 19.2 17.6658 18.8192 17.6658 18.35C17.6658 17.8808 17.2709 17.5 16.7825 17.5H15.8991V15.8H16.7825C17.2709 15.8 17.6658 15.4192 17.6658 14.95C17.6658 14.4808 17.2709 14.1 16.7825 14.1H15.8991V12.4H16.7825C17.2709 12.4 17.6658 12.0192 17.6658 11.55C17.6658 11.0808 17.2709 10.7 16.7825 10.7H15.8991V9H20.3158C20.8043 9 21.1991 8.6192 21.1991 8.15C21.1991 7.6808 20.8043 7.3 20.3158 7.3H15.8991V4.75C15.8991 3.3441 17.0881 2.2 18.5491 2.2H30.9158C32.3768 2.2 33.5658 3.3441 33.5658 4.75V47.25C33.5658 48.6559 32.3768 49.8 30.9158 49.8H18.5491C17.0881 49.8 15.8991 48.6559 15.8991 47.25V38.75C15.8991 38.2808 15.5043 37.9 15.0158 37.9C14.5273 37.9 14.1325 38.2808 14.1325 38.75V47.25C14.1325 49.5935 16.1138 51.5 18.5491 51.5H30.9158C33.3511 51.5 35.3325 49.5935 35.3325 47.25V4.75C35.3325 2.40655 33.3511 0.5 30.9158 0.5ZM45.0491 41.3C44.5606 41.3 44.1658 41.6808 44.1658 42.15C44.1658 42.6192 44.5606 43 45.0491 43H52.1158C52.6043 43 52.9991 42.6192 52.9991 42.15V37.05C52.9991 34.7066 51.0178 32.8 48.5825 32.8H45.0491C42.6138 32.8 40.6325 34.7066 40.6325 37.05V47.25C40.6325 49.5935 42.6138 51.5 45.0491 51.5H48.5825C51.0178 51.5 52.9991 49.5935 52.9991 47.25V45.55C52.9991 45.0808 52.6043 44.7 52.1158 44.7C51.6273 44.7 51.2325 45.0808 51.2325 45.55V47.25C51.2325 48.6559 50.0435 49.8 48.5825 49.8H45.0491C43.5881 49.8 42.3991 48.6559 42.3991 47.25V37.05C42.3991 35.6441 43.5881 34.5 45.0491 34.5H48.5825C50.0435 34.5 51.2325 35.6441 51.2325 37.05V41.3H45.0491Z" fill="black"/>
</svg>
