<svg width="45" height="33" viewBox="0 0 45 33" fill="none" xmlns="http://www.w3.org/2000/svg">
<path fill-rule="evenodd" clip-rule="evenodd" d="M1.25977 0.471436H44.3135V24.9857H1.25977V0.471436Z" stroke="#014098" stroke-linecap="round" stroke-linejoin="round"/>
<path d="M20.4089 24.9857C20.4089 27.2202 20.4089 28.6701 20.4089 29.3353C20.4089 30.3332 19.2333 31.2227 16.2629 31.2227C14.2827 31.2227 11.276 31.2227 7.24282 31.2227C7.13128 31.5225 7.0487 31.7341 6.9951 31.8576C6.95747 31.9444 6.93819 32.1245 6.93726 32.3981H22.5908" stroke="#014098" stroke-linecap="round" stroke-linejoin="round"/>
<path d="M24.7319 24.9857C24.7319 27.2202 24.7319 28.6701 24.7319 29.3353C24.7319 30.3332 25.9076 31.2227 28.8779 31.2227C30.8582 31.2227 33.8649 31.2227 37.898 31.2227C38.0096 31.5225 38.0922 31.7341 38.1458 31.8576C38.1834 31.9444 38.2027 32.1245 38.2036 32.3981H22.5501" stroke="#014098" stroke-linecap="round" stroke-linejoin="round"/>
</svg>
