<svg width="60" height="46" viewBox="0 0 60 46" fill="none" xmlns="http://www.w3.org/2000/svg">
<path fill-rule="evenodd" clip-rule="evenodd" d="M6.93799 41.8359H8.93799C9.48999 41.8359 9.93799 41.3879 9.93799 40.8359C9.93799 40.2839 9.48999 39.8359 8.93799 39.8359H6.93799C6.38599 39.8359 5.93799 40.2839 5.93799 40.8359C5.93799 41.3879 6.38599 41.8359 6.93799 41.8359ZM12.938 41.8359H14.938C15.49 41.8359 15.938 41.3879 15.938 40.8359C15.938 40.2839 15.49 39.8359 14.938 39.8359H12.938C12.386 39.8359 11.938 40.2839 11.938 40.8359C11.938 41.3879 12.386 41.8359 12.938 41.8359ZM18.938 41.8359H20.938C21.49 41.8359 21.938 41.3879 21.938 40.8359C21.938 40.2839 21.49 39.8359 20.938 39.8359H18.938C18.386 39.8359 17.938 40.2839 17.938 40.8359C17.938 41.3879 18.386 41.8359 18.938 41.8359ZM24.938 41.8359H26.938C27.49 41.8359 27.938 41.3879 27.938 40.8359C27.938 40.2839 27.49 39.8359 26.938 39.8359H24.938C24.386 39.8359 23.938 40.2839 23.938 40.8359C23.938 41.3879 24.386 41.8359 24.938 41.8359ZM30.938 41.8359H32.938C33.49 41.8359 33.938 41.3879 33.938 40.8359C33.938 40.2839 33.49 39.8359 32.938 39.8359H30.938C30.386 39.8359 29.938 40.2839 29.938 40.8359C29.938 41.3879 30.386 41.8359 30.938 41.8359ZM38.938 41.8359C39.49 41.8359 39.938 41.3879 39.938 40.8359C39.938 40.2839 39.49 39.8359 38.938 39.8359H36.938C36.386 39.8359 35.938 40.2839 35.938 40.8359C35.938 41.3879 36.386 41.8359 36.938 41.8359H38.938ZM44.938 41.8359C45.49 41.8359 45.938 41.3879 45.938 40.8359C45.938 40.2839 45.49 39.8359 44.938 39.8359H42.938C42.386 39.8359 41.938 40.2839 41.938 40.8359C41.938 41.3879 42.386 41.8359 42.938 41.8359H44.938ZM50.938 41.8359C51.49 41.8359 51.938 41.3879 51.938 40.8359C51.938 40.2839 51.49 39.8359 50.938 39.8359H48.938C48.386 39.8359 47.938 40.2839 47.938 40.8359C47.938 41.3879 48.386 41.8359 48.938 41.8359H50.938ZM6.93799 5.83588H8.93799C9.48999 5.83588 9.93799 5.38788 9.93799 4.83588C9.93799 4.28388 9.48999 3.83588 8.93799 3.83588H6.93799C6.38599 3.83588 5.93799 4.28388 5.93799 4.83588C5.93799 5.38788 6.38599 5.83588 6.93799 5.83588ZM12.938 5.83588H14.938C15.49 5.83588 15.938 5.38788 15.938 4.83588C15.938 4.28388 15.49 3.83588 14.938 3.83588H12.938C12.386 3.83588 11.938 4.28388 11.938 4.83588C11.938 5.38788 12.386 5.83588 12.938 5.83588ZM18.938 5.83588H20.938C21.49 5.83588 21.938 5.38788 21.938 4.83588C21.938 4.28388 21.49 3.83588 20.938 3.83588H18.938C18.386 3.83588 17.938 4.28388 17.938 4.83588C17.938 5.38788 18.386 5.83588 18.938 5.83588ZM24.938 5.83588H26.938C27.49 5.83588 27.938 5.38788 27.938 4.83588C27.938 4.28388 27.49 3.83588 26.938 3.83588H24.938C24.386 3.83588 23.938 4.28388 23.938 4.83588C23.938 5.38788 24.386 5.83588 24.938 5.83588ZM30.938 5.83588H32.938C33.49 5.83588 33.938 5.38788 33.938 4.83588C33.938 4.28388 33.49 3.83588 32.938 3.83588H30.938C30.386 3.83588 29.938 4.28388 29.938 4.83588C29.938 5.38788 30.386 5.83588 30.938 5.83588ZM38.938 5.83588C39.49 5.83588 39.938 5.38788 39.938 4.83588C39.938 4.28388 39.49 3.83588 38.938 3.83588H36.938C36.386 3.83588 35.938 4.28388 35.938 4.83588C35.938 5.38788 36.386 5.83588 36.938 5.83588H38.938ZM44.938 5.83588C45.49 5.83588 45.938 5.38788 45.938 4.83588C45.938 4.28388 45.49 3.83588 44.938 3.83588H42.938C42.386 3.83588 41.938 4.28388 41.938 4.83588C41.938 5.38788 42.386 5.83588 42.938 5.83588H44.938ZM50.938 5.83588C51.49 5.83588 51.938 5.38788 51.938 4.83588C51.938 4.28388 51.49 3.83588 50.938 3.83588H48.938C48.386 3.83588 47.938 4.28388 47.938 4.83588C47.938 5.38788 48.386 5.83588 48.938 5.83588H50.938ZM38.968 21.8359H38.958C38.406 21.8359 37.963 22.2839 37.963 22.8359C37.963 23.3879 38.416 23.8359 38.968 23.8359C39.521 23.8359 39.968 23.3879 39.968 22.8359C39.968 22.2839 39.521 21.8359 38.968 21.8359ZM57.939 25.8359L57.938 19.8359H35.938V25.8359H57.939ZM59.938 19.8359V25.8359C59.938 26.9389 59.041 27.8359 57.938 27.8359H35.938C34.835 27.8359 33.938 26.9389 33.938 25.8359V19.8359C33.938 18.7329 34.835 17.8359 35.938 17.8359H55.938V4.83588C55.938 3.18188 54.592 1.83588 52.938 1.83588H4.93799C4.42199 1.83588 3.99099 1.44288 3.94199 0.92988C3.89399 0.41688 4.24399 -0.0501204 4.75099 -0.14612L46.751 -8.14612C46.807 -8.15912 48.782 -8.57212 50.31 -7.34312C51.39 -6.47312 51.938 -5.06712 51.938 -3.16412C51.938 -2.61212 51.49 -2.16412 50.938 -2.16412C50.386 -2.16412 49.938 -2.61212 49.938 -3.16412C49.938 -4.42412 49.645 -5.30312 49.066 -5.77612C48.291 -6.40912 47.155 -6.18812 47.145 -6.18512L15.532 -0.16412H52.938C55.695 -0.16412 57.938 2.07888 57.938 4.83588V17.8359C59.041 17.8359 59.938 18.7329 59.938 19.8359ZM57.938 30.8359V40.8359C57.938 43.5929 55.695 45.8359 52.938 45.8359H4.93799C2.18099 45.8359 -0.0620117 43.5929 -0.0620117 40.8359V0.83588C-0.0620117 -2.04912 2.31699 -3.98812 4.67599 -4.62912L34.651 -13.6221C34.904 -13.7281 37.945 -14.8861 40.096 -13.4331C41.318 -12.6081 41.938 -11.1711 41.938 -9.16412C41.938 -8.61212 41.49 -8.16412 40.938 -8.16412C40.386 -8.16412 39.938 -8.61212 39.938 -9.16412C39.938 -10.4661 39.615 -11.3451 38.977 -11.7761C37.889 -12.5121 35.917 -11.9801 35.312 -11.7361L5.22499 -2.70612C3.62899 -2.27212 1.93799 -0.98312 1.93799 0.83588V40.8359C1.93799 42.4899 3.28399 43.8359 4.93799 43.8359H52.938C54.592 43.8359 55.938 42.4899 55.938 40.8359V30.8359C55.938 30.2839 56.386 29.8359 56.938 29.8359C57.49 29.8359 57.938 30.2839 57.938 30.8359Z" fill="black"/>
</svg>
