<svg width="420" height="261" viewBox="0 0 420 261" fill="none" xmlns="http://www.w3.org/2000/svg">
<g filter="url(#filter0_b)">
<rect x="0.535645" y="0.375305" width="419.278" height="260.566" rx="32" fill="url(#paint0_radial)" fill-opacity="0.5"/>
<rect x="1.03564" y="0.875305" width="418.278" height="259.566" rx="31.5" stroke="white" stroke-opacity="0.3" style="mix-blend-mode:overlay"/>
</g>
<path d="M34.6898 160.44V162.228H25.3778V160.44H29.0258V149.148C29.0258 148.788 29.0378 148.416 29.0618 148.032L26.1338 150.516C26.0218 150.604 25.9098 150.66 25.7978 150.684C25.6858 150.708 25.5778 150.712 25.4738 150.696C25.3778 150.68 25.2898 150.648 25.2098 150.6C25.1378 150.544 25.0778 150.488 25.0298 150.432L24.2978 149.412L29.4578 144.96H31.3658V160.44H34.6898ZM48.1797 160.008C48.4357 160.008 48.6357 160.084 48.7797 160.236C48.9237 160.38 48.9957 160.572 48.9957 160.812V162.228H37.4277V161.424C37.4277 161.264 37.4597 161.096 37.5237 160.92C37.5877 160.736 37.6957 160.572 37.8477 160.428L43.2957 154.968C43.7517 154.512 44.1637 154.072 44.5317 153.648C44.8997 153.224 45.2117 152.804 45.4677 152.388C45.7237 151.964 45.9197 151.532 46.0557 151.092C46.1997 150.652 46.2717 150.188 46.2717 149.7C46.2717 149.22 46.1957 148.8 46.0437 148.44C45.8917 148.072 45.6837 147.768 45.4197 147.528C45.1557 147.288 44.8437 147.108 44.4837 146.988C44.1237 146.868 43.7357 146.808 43.3197 146.808C42.9037 146.808 42.5197 146.868 42.1677 146.988C41.8237 147.108 41.5157 147.276 41.2437 147.492C40.9717 147.708 40.7437 147.964 40.5597 148.26C40.3757 148.556 40.2437 148.876 40.1637 149.22C40.0517 149.524 39.9077 149.728 39.7317 149.832C39.5637 149.936 39.3157 149.96 38.9877 149.904L37.7637 149.688C37.8757 148.888 38.0957 148.184 38.4237 147.576C38.7517 146.968 39.1637 146.46 39.6597 146.052C40.1557 145.636 40.7237 145.324 41.3637 145.116C42.0117 144.908 42.7077 144.804 43.4517 144.804C44.2037 144.804 44.8957 144.916 45.5277 145.14C46.1677 145.356 46.7197 145.672 47.1837 146.088C47.6477 146.504 48.0117 147.012 48.2757 147.612C48.5397 148.204 48.6717 148.876 48.6717 149.628C48.6717 150.268 48.5757 150.864 48.3837 151.416C48.1997 151.96 47.9437 152.48 47.6157 152.976C47.2957 153.472 46.9197 153.956 46.4877 154.428C46.0637 154.892 45.6117 155.364 45.1317 155.844L40.7637 160.308C41.0997 160.22 41.4357 160.148 41.7717 160.092C42.1157 160.036 42.4397 160.008 42.7437 160.008H48.1797ZM51.7575 149.688C51.8775 148.888 52.1015 148.184 52.4295 147.576C52.7575 146.968 53.1695 146.46 53.6655 146.052C54.1615 145.636 54.7295 145.324 55.3695 145.116C56.0175 144.908 56.7135 144.804 57.4575 144.804C58.2015 144.804 58.8855 144.912 59.5095 145.128C60.1335 145.336 60.6655 145.636 61.1055 146.028C61.5535 146.412 61.9015 146.876 62.1495 147.42C62.3975 147.964 62.5215 148.564 62.5215 149.22C62.5215 149.772 62.4535 150.26 62.3175 150.684C62.1815 151.108 61.9855 151.48 61.7295 151.8C61.4815 152.12 61.1775 152.392 60.8175 152.616C60.4575 152.832 60.0535 153.012 59.6055 153.156C60.7015 153.46 61.5255 153.956 62.0775 154.644C62.6295 155.324 62.9055 156.188 62.9055 157.236C62.9055 158.044 62.7535 158.772 62.4495 159.42C62.1455 160.06 61.7295 160.604 61.2015 161.052C60.6735 161.492 60.0575 161.832 59.3535 162.072C58.6575 162.304 57.9135 162.42 57.1215 162.42C56.2175 162.42 55.4415 162.312 54.7935 162.096C54.1455 161.872 53.5935 161.564 53.1375 161.172C52.6815 160.772 52.3015 160.296 51.9975 159.744C51.7015 159.184 51.4495 158.572 51.2415 157.908L52.2615 157.476C52.5255 157.364 52.7815 157.332 53.0295 157.38C53.2775 157.428 53.4575 157.568 53.5695 157.8C53.6895 158.04 53.8255 158.312 53.9775 158.616C54.1375 158.912 54.3495 159.196 54.6135 159.468C54.8775 159.732 55.2055 159.956 55.5975 160.14C55.9975 160.324 56.4975 160.416 57.0975 160.416C57.6735 160.416 58.1775 160.324 58.6095 160.14C59.0415 159.948 59.4015 159.704 59.6895 159.408C59.9775 159.104 60.1935 158.768 60.3375 158.4C60.4815 158.032 60.5535 157.668 60.5535 157.308C60.5535 156.86 60.4975 156.448 60.3855 156.072C60.2735 155.696 60.0575 155.376 59.7375 155.112C59.4255 154.84 58.9895 154.628 58.4295 154.476C57.8695 154.324 57.1415 154.248 56.2455 154.248V152.544C56.9815 152.536 57.6015 152.46 58.1055 152.316C58.6175 152.172 59.0295 151.972 59.3415 151.716C59.6535 151.46 59.8775 151.156 60.0135 150.804C60.1575 150.452 60.2295 150.06 60.2295 149.628C60.2295 149.156 60.1575 148.744 60.0135 148.392C59.8695 148.04 59.6655 147.748 59.4015 147.516C59.1455 147.276 58.8375 147.1 58.4775 146.988C58.1255 146.868 57.7415 146.808 57.3255 146.808C56.9095 146.808 56.5255 146.868 56.1735 146.988C55.8215 147.108 55.5095 147.276 55.2375 147.492C54.9655 147.708 54.7375 147.964 54.5535 148.26C54.3695 148.556 54.2375 148.876 54.1575 149.22C54.0455 149.524 53.9015 149.728 53.7255 149.832C53.5575 149.936 53.3135 149.96 52.9935 149.904L51.7575 149.688ZM72.9034 155.94V149.22C72.9034 148.988 72.9074 148.744 72.9154 148.488C72.9314 148.224 72.9594 147.952 72.9994 147.672L66.9634 155.94H72.9034ZM77.4514 155.94V157.296C77.4514 157.432 77.4074 157.548 77.3194 157.644C77.2314 157.74 77.1074 157.788 76.9474 157.788H74.9554V162.228H72.9034V157.788H65.3434C65.1674 157.788 65.0194 157.74 64.8994 157.644C64.7794 157.54 64.6994 157.412 64.6594 157.26L64.4194 156.06L72.7474 144.984H74.9554V155.94H77.4514ZM88.6596 151.428C89.5396 151.244 90.3356 151.152 91.0476 151.152C91.9436 151.152 92.7356 151.288 93.4236 151.56C94.1116 151.824 94.6876 152.192 95.1516 152.664C95.6236 153.128 95.9756 153.68 96.2076 154.32C96.4476 154.952 96.5676 155.64 96.5676 156.384C96.5676 157.296 96.4076 158.124 96.0876 158.868C95.7676 159.612 95.3276 160.248 94.7676 160.776C94.2076 161.304 93.5436 161.712 92.7756 162C92.0156 162.28 91.1956 162.42 90.3156 162.42C89.7956 162.42 89.2996 162.368 88.8276 162.264C88.3636 162.16 87.9276 162.024 87.5196 161.856C87.1116 161.68 86.7316 161.48 86.3796 161.256C86.0356 161.032 85.7276 160.796 85.4556 160.548L86.1756 159.54C86.3276 159.316 86.5316 159.204 86.7876 159.204C86.9556 159.204 87.1396 159.268 87.3396 159.396C87.5476 159.516 87.7916 159.652 88.0716 159.804C88.3516 159.956 88.6836 160.096 89.0676 160.224C89.4516 160.344 89.9076 160.404 90.4356 160.404C91.0196 160.404 91.5436 160.312 92.0076 160.128C92.4796 159.936 92.8756 159.668 93.1956 159.324C93.5236 158.98 93.7716 158.568 93.9396 158.088C94.1156 157.608 94.2036 157.076 94.2036 156.492C94.2036 155.972 94.1276 155.504 93.9756 155.088C93.8236 154.672 93.5956 154.316 93.2916 154.02C92.9876 153.724 92.6076 153.5 92.1516 153.348C91.6956 153.188 91.1636 153.108 90.5556 153.108C89.7076 153.108 88.8036 153.26 87.8436 153.564L86.3676 153.132L87.7716 144.996H96.0276V146.016C96.0276 146.352 95.9196 146.628 95.7036 146.844C95.4956 147.052 95.1436 147.156 94.6476 147.156H89.4036L88.6596 151.428ZM105.041 160.464C105.593 160.464 106.093 160.376 106.541 160.2C106.989 160.016 107.373 159.768 107.693 159.456C108.013 159.144 108.261 158.772 108.437 158.34C108.613 157.908 108.701 157.44 108.701 156.936C108.701 156.384 108.613 155.892 108.437 155.46C108.269 155.02 108.029 154.648 107.717 154.344C107.413 154.04 107.045 153.808 106.613 153.648C106.181 153.488 105.701 153.408 105.173 153.408C104.621 153.408 104.125 153.504 103.685 153.696C103.245 153.88 102.869 154.132 102.557 154.452C102.245 154.764 102.005 155.132 101.837 155.556C101.669 155.98 101.585 156.424 101.585 156.888C101.585 157.416 101.661 157.9 101.813 158.34C101.965 158.78 102.189 159.156 102.485 159.468C102.781 159.78 103.141 160.024 103.565 160.2C103.997 160.376 104.489 160.464 105.041 160.464ZM103.937 151.404C103.801 151.58 103.665 151.752 103.529 151.92C103.401 152.08 103.277 152.24 103.157 152.4C103.541 152.152 103.965 151.96 104.429 151.824C104.901 151.688 105.409 151.62 105.953 151.62C106.633 151.62 107.281 151.732 107.897 151.956C108.513 152.18 109.053 152.508 109.517 152.94C109.989 153.372 110.361 153.908 110.633 154.548C110.905 155.188 111.041 155.924 111.041 156.756C111.041 157.548 110.897 158.292 110.609 158.988C110.321 159.676 109.913 160.276 109.385 160.788C108.865 161.292 108.241 161.692 107.513 161.988C106.785 162.276 105.977 162.42 105.089 162.42C104.209 162.42 103.413 162.28 102.701 162C101.997 161.72 101.393 161.324 100.889 160.812C100.393 160.292 100.009 159.668 99.7375 158.94C99.4655 158.204 99.3295 157.388 99.3295 156.492C99.3295 155.724 99.4935 154.916 99.8215 154.068C100.157 153.212 100.685 152.3 101.405 151.332L105.713 145.56C105.833 145.4 106.001 145.268 106.217 145.164C106.433 145.052 106.681 144.996 106.961 144.996H109.049L103.937 151.404ZM125.035 144.996V146.04C125.035 146.344 124.999 146.592 124.927 146.784C124.863 146.968 124.799 147.128 124.735 147.264L117.751 161.4C117.639 161.632 117.483 161.828 117.283 161.988C117.083 162.148 116.815 162.228 116.479 162.228H114.799L121.891 148.296C122.011 148.072 122.131 147.868 122.251 147.684C122.371 147.492 122.503 147.316 122.647 147.156H113.839C113.687 147.156 113.555 147.1 113.443 146.988C113.331 146.876 113.275 146.744 113.275 146.592V144.996H125.035ZM132.909 160.56C133.453 160.56 133.937 160.484 134.361 160.332C134.785 160.18 135.145 159.968 135.441 159.696C135.737 159.416 135.961 159.084 136.113 158.7C136.265 158.316 136.341 157.896 136.341 157.44C136.341 156.88 136.249 156.4 136.065 156C135.881 155.592 135.633 155.26 135.321 155.004C135.009 154.74 134.645 154.548 134.229 154.428C133.813 154.3 133.373 154.236 132.909 154.236C132.437 154.236 131.993 154.3 131.577 154.428C131.161 154.548 130.797 154.74 130.485 155.004C130.173 155.26 129.925 155.592 129.741 156C129.565 156.4 129.477 156.88 129.477 157.44C129.477 157.896 129.553 158.316 129.705 158.7C129.857 159.084 130.081 159.416 130.377 159.696C130.673 159.968 131.033 160.18 131.457 160.332C131.881 160.484 132.365 160.56 132.909 160.56ZM132.909 146.604C132.413 146.604 131.977 146.68 131.601 146.832C131.233 146.976 130.925 147.176 130.677 147.432C130.429 147.688 130.241 147.984 130.113 148.32C129.993 148.656 129.933 149.016 129.933 149.4C129.933 149.776 129.985 150.144 130.089 150.504C130.201 150.856 130.373 151.172 130.605 151.452C130.845 151.724 131.153 151.944 131.529 152.112C131.905 152.28 132.365 152.364 132.909 152.364C133.445 152.364 133.901 152.28 134.277 152.112C134.661 151.944 134.969 151.724 135.201 151.452C135.441 151.172 135.613 150.856 135.717 150.504C135.829 150.144 135.885 149.776 135.885 149.4C135.885 149.016 135.821 148.656 135.693 148.32C135.573 147.984 135.389 147.688 135.141 147.432C134.893 147.176 134.581 146.976 134.205 146.832C133.837 146.68 133.405 146.604 132.909 146.604ZM135.489 153.24C136.561 153.56 137.373 154.076 137.925 154.788C138.485 155.5 138.765 156.4 138.765 157.488C138.765 158.24 138.621 158.92 138.333 159.528C138.053 160.136 137.653 160.656 137.133 161.088C136.621 161.512 136.005 161.84 135.285 162.072C134.565 162.304 133.773 162.42 132.909 162.42C132.045 162.42 131.253 162.304 130.533 162.072C129.813 161.84 129.193 161.512 128.673 161.088C128.161 160.656 127.761 160.136 127.473 159.528C127.193 158.92 127.053 158.24 127.053 157.488C127.053 156.4 127.329 155.5 127.881 154.788C128.441 154.076 129.257 153.56 130.329 153.24C129.441 152.904 128.773 152.404 128.325 151.74C127.877 151.068 127.653 150.272 127.653 149.352C127.653 148.712 127.777 148.116 128.025 147.564C128.281 147.004 128.637 146.52 129.093 146.112C129.557 145.704 130.113 145.384 130.761 145.152C131.409 144.92 132.125 144.804 132.909 144.804C133.693 144.804 134.409 144.92 135.057 145.152C135.705 145.384 136.257 145.704 136.713 146.112C137.177 146.52 137.533 147.004 137.781 147.564C138.037 148.116 138.165 148.712 138.165 149.352C138.165 150.272 137.941 151.068 137.493 151.74C137.045 152.404 136.377 152.904 135.489 153.24ZM158.205 160.44V162.228H148.893V160.44H152.541V149.148C152.541 148.788 152.553 148.416 152.577 148.032L149.649 150.516C149.537 150.604 149.425 150.66 149.313 150.684C149.201 150.708 149.093 150.712 148.989 150.696C148.893 150.68 148.805 150.648 148.725 150.6C148.653 150.544 148.593 150.488 148.545 150.432L147.813 149.412L152.973 144.96H154.881V160.44H158.205ZM171.695 160.008C171.951 160.008 172.151 160.084 172.295 160.236C172.439 160.38 172.511 160.572 172.511 160.812V162.228H160.943V161.424C160.943 161.264 160.975 161.096 161.039 160.92C161.103 160.736 161.211 160.572 161.363 160.428L166.811 154.968C167.267 154.512 167.679 154.072 168.047 153.648C168.415 153.224 168.727 152.804 168.983 152.388C169.239 151.964 169.435 151.532 169.571 151.092C169.715 150.652 169.787 150.188 169.787 149.7C169.787 149.22 169.711 148.8 169.559 148.44C169.407 148.072 169.199 147.768 168.935 147.528C168.671 147.288 168.359 147.108 167.999 146.988C167.639 146.868 167.251 146.808 166.835 146.808C166.419 146.808 166.035 146.868 165.683 146.988C165.339 147.108 165.031 147.276 164.759 147.492C164.487 147.708 164.259 147.964 164.075 148.26C163.891 148.556 163.759 148.876 163.679 149.22C163.567 149.524 163.423 149.728 163.247 149.832C163.079 149.936 162.831 149.96 162.503 149.904L161.279 149.688C161.391 148.888 161.611 148.184 161.939 147.576C162.267 146.968 162.679 146.46 163.175 146.052C163.671 145.636 164.239 145.324 164.879 145.116C165.527 144.908 166.223 144.804 166.967 144.804C167.719 144.804 168.411 144.916 169.043 145.14C169.683 145.356 170.235 145.672 170.699 146.088C171.163 146.504 171.527 147.012 171.791 147.612C172.055 148.204 172.187 148.876 172.187 149.628C172.187 150.268 172.091 150.864 171.899 151.416C171.715 151.96 171.459 152.48 171.131 152.976C170.811 153.472 170.435 153.956 170.003 154.428C169.579 154.892 169.127 155.364 168.647 155.844L164.279 160.308C164.615 160.22 164.951 160.148 165.287 160.092C165.631 160.036 165.955 160.008 166.259 160.008H171.695ZM175.273 149.688C175.393 148.888 175.617 148.184 175.945 147.576C176.273 146.968 176.685 146.46 177.181 146.052C177.677 145.636 178.245 145.324 178.885 145.116C179.533 144.908 180.229 144.804 180.973 144.804C181.717 144.804 182.401 144.912 183.025 145.128C183.649 145.336 184.181 145.636 184.621 146.028C185.069 146.412 185.417 146.876 185.665 147.42C185.913 147.964 186.037 148.564 186.037 149.22C186.037 149.772 185.969 150.26 185.833 150.684C185.697 151.108 185.501 151.48 185.245 151.8C184.997 152.12 184.693 152.392 184.333 152.616C183.973 152.832 183.569 153.012 183.121 153.156C184.217 153.46 185.041 153.956 185.593 154.644C186.145 155.324 186.421 156.188 186.421 157.236C186.421 158.044 186.269 158.772 185.965 159.42C185.661 160.06 185.245 160.604 184.717 161.052C184.189 161.492 183.573 161.832 182.869 162.072C182.173 162.304 181.429 162.42 180.637 162.42C179.733 162.42 178.957 162.312 178.309 162.096C177.661 161.872 177.109 161.564 176.653 161.172C176.197 160.772 175.817 160.296 175.513 159.744C175.217 159.184 174.965 158.572 174.757 157.908L175.777 157.476C176.041 157.364 176.297 157.332 176.545 157.38C176.793 157.428 176.973 157.568 177.085 157.8C177.205 158.04 177.341 158.312 177.493 158.616C177.653 158.912 177.865 159.196 178.129 159.468C178.393 159.732 178.721 159.956 179.113 160.14C179.513 160.324 180.013 160.416 180.613 160.416C181.189 160.416 181.693 160.324 182.125 160.14C182.557 159.948 182.917 159.704 183.205 159.408C183.493 159.104 183.709 158.768 183.853 158.4C183.997 158.032 184.069 157.668 184.069 157.308C184.069 156.86 184.013 156.448 183.901 156.072C183.789 155.696 183.573 155.376 183.253 155.112C182.941 154.84 182.505 154.628 181.945 154.476C181.385 154.324 180.657 154.248 179.761 154.248V152.544C180.497 152.536 181.117 152.46 181.621 152.316C182.133 152.172 182.545 151.972 182.857 151.716C183.169 151.46 183.393 151.156 183.529 150.804C183.673 150.452 183.745 150.06 183.745 149.628C183.745 149.156 183.673 148.744 183.529 148.392C183.385 148.04 183.181 147.748 182.917 147.516C182.661 147.276 182.353 147.1 181.993 146.988C181.641 146.868 181.257 146.808 180.841 146.808C180.425 146.808 180.041 146.868 179.689 146.988C179.337 147.108 179.025 147.276 178.753 147.492C178.481 147.708 178.253 147.964 178.069 148.26C177.885 148.556 177.753 148.876 177.673 149.22C177.561 149.524 177.417 149.728 177.241 149.832C177.073 149.936 176.829 149.96 176.509 149.904L175.273 149.688ZM196.419 155.94V149.22C196.419 148.988 196.423 148.744 196.431 148.488C196.447 148.224 196.475 147.952 196.515 147.672L190.479 155.94H196.419ZM200.967 155.94V157.296C200.967 157.432 200.923 157.548 200.835 157.644C200.747 157.74 200.623 157.788 200.463 157.788H198.471V162.228H196.419V157.788H188.859C188.683 157.788 188.535 157.74 188.415 157.644C188.295 157.54 188.215 157.412 188.175 157.26L187.935 156.06L196.263 144.984H198.471V155.94H200.967ZM212.175 151.428C213.055 151.244 213.851 151.152 214.563 151.152C215.459 151.152 216.251 151.288 216.939 151.56C217.627 151.824 218.203 152.192 218.667 152.664C219.139 153.128 219.491 153.68 219.723 154.32C219.963 154.952 220.083 155.64 220.083 156.384C220.083 157.296 219.923 158.124 219.603 158.868C219.283 159.612 218.843 160.248 218.283 160.776C217.723 161.304 217.059 161.712 216.291 162C215.531 162.28 214.711 162.42 213.831 162.42C213.311 162.42 212.815 162.368 212.343 162.264C211.879 162.16 211.443 162.024 211.035 161.856C210.627 161.68 210.247 161.48 209.895 161.256C209.551 161.032 209.243 160.796 208.971 160.548L209.691 159.54C209.843 159.316 210.047 159.204 210.303 159.204C210.471 159.204 210.655 159.268 210.855 159.396C211.063 159.516 211.307 159.652 211.587 159.804C211.867 159.956 212.199 160.096 212.583 160.224C212.967 160.344 213.423 160.404 213.951 160.404C214.535 160.404 215.059 160.312 215.523 160.128C215.995 159.936 216.391 159.668 216.711 159.324C217.039 158.98 217.287 158.568 217.455 158.088C217.631 157.608 217.719 157.076 217.719 156.492C217.719 155.972 217.643 155.504 217.491 155.088C217.339 154.672 217.111 154.316 216.807 154.02C216.503 153.724 216.123 153.5 215.667 153.348C215.211 153.188 214.679 153.108 214.071 153.108C213.223 153.108 212.319 153.26 211.359 153.564L209.883 153.132L211.287 144.996H219.543V146.016C219.543 146.352 219.435 146.628 219.219 146.844C219.011 147.052 218.659 147.156 218.163 147.156H212.919L212.175 151.428ZM228.557 160.464C229.109 160.464 229.609 160.376 230.057 160.2C230.505 160.016 230.889 159.768 231.209 159.456C231.529 159.144 231.777 158.772 231.953 158.34C232.129 157.908 232.217 157.44 232.217 156.936C232.217 156.384 232.129 155.892 231.953 155.46C231.785 155.02 231.545 154.648 231.233 154.344C230.929 154.04 230.561 153.808 230.129 153.648C229.697 153.488 229.217 153.408 228.689 153.408C228.137 153.408 227.641 153.504 227.201 153.696C226.761 153.88 226.385 154.132 226.073 154.452C225.761 154.764 225.521 155.132 225.353 155.556C225.185 155.98 225.101 156.424 225.101 156.888C225.101 157.416 225.177 157.9 225.329 158.34C225.481 158.78 225.705 159.156 226.001 159.468C226.297 159.78 226.657 160.024 227.081 160.2C227.513 160.376 228.005 160.464 228.557 160.464ZM227.453 151.404C227.317 151.58 227.181 151.752 227.045 151.92C226.917 152.08 226.793 152.24 226.673 152.4C227.057 152.152 227.481 151.96 227.945 151.824C228.417 151.688 228.925 151.62 229.469 151.62C230.149 151.62 230.797 151.732 231.413 151.956C232.029 152.18 232.569 152.508 233.033 152.94C233.505 153.372 233.877 153.908 234.149 154.548C234.421 155.188 234.557 155.924 234.557 156.756C234.557 157.548 234.413 158.292 234.125 158.988C233.837 159.676 233.429 160.276 232.901 160.788C232.381 161.292 231.757 161.692 231.029 161.988C230.301 162.276 229.493 162.42 228.605 162.42C227.725 162.42 226.929 162.28 226.217 162C225.513 161.72 224.909 161.324 224.405 160.812C223.909 160.292 223.525 159.668 223.253 158.94C222.981 158.204 222.845 157.388 222.845 156.492C222.845 155.724 223.009 154.916 223.337 154.068C223.673 153.212 224.201 152.3 224.921 151.332L229.229 145.56C229.349 145.4 229.517 145.268 229.733 145.164C229.949 145.052 230.197 144.996 230.477 144.996H232.565L227.453 151.404ZM248.551 144.996V146.04C248.551 146.344 248.515 146.592 248.443 146.784C248.379 146.968 248.315 147.128 248.251 147.264L241.267 161.4C241.155 161.632 240.999 161.828 240.799 161.988C240.599 162.148 240.331 162.228 239.995 162.228H238.315L245.407 148.296C245.527 148.072 245.647 147.868 245.767 147.684C245.887 147.492 246.019 147.316 246.163 147.156H237.355C237.203 147.156 237.071 147.1 236.959 146.988C236.847 146.876 236.791 146.744 236.791 146.592V144.996H248.551ZM256.425 160.56C256.969 160.56 257.453 160.484 257.877 160.332C258.301 160.18 258.661 159.968 258.957 159.696C259.253 159.416 259.477 159.084 259.629 158.7C259.781 158.316 259.857 157.896 259.857 157.44C259.857 156.88 259.765 156.4 259.581 156C259.397 155.592 259.149 155.26 258.837 155.004C258.525 154.74 258.161 154.548 257.745 154.428C257.329 154.3 256.889 154.236 256.425 154.236C255.953 154.236 255.509 154.3 255.093 154.428C254.677 154.548 254.313 154.74 254.001 155.004C253.689 155.26 253.441 155.592 253.257 156C253.081 156.4 252.993 156.88 252.993 157.44C252.993 157.896 253.069 158.316 253.221 158.7C253.373 159.084 253.597 159.416 253.893 159.696C254.189 159.968 254.549 160.18 254.973 160.332C255.397 160.484 255.881 160.56 256.425 160.56ZM256.425 146.604C255.929 146.604 255.493 146.68 255.117 146.832C254.749 146.976 254.441 147.176 254.193 147.432C253.945 147.688 253.757 147.984 253.629 148.32C253.509 148.656 253.449 149.016 253.449 149.4C253.449 149.776 253.501 150.144 253.605 150.504C253.717 150.856 253.889 151.172 254.121 151.452C254.361 151.724 254.669 151.944 255.045 152.112C255.421 152.28 255.881 152.364 256.425 152.364C256.961 152.364 257.417 152.28 257.793 152.112C258.177 151.944 258.485 151.724 258.717 151.452C258.957 151.172 259.129 150.856 259.233 150.504C259.345 150.144 259.401 149.776 259.401 149.4C259.401 149.016 259.337 148.656 259.209 148.32C259.089 147.984 258.905 147.688 258.657 147.432C258.409 147.176 258.097 146.976 257.721 146.832C257.353 146.68 256.921 146.604 256.425 146.604ZM259.005 153.24C260.077 153.56 260.889 154.076 261.441 154.788C262.001 155.5 262.281 156.4 262.281 157.488C262.281 158.24 262.137 158.92 261.849 159.528C261.569 160.136 261.169 160.656 260.649 161.088C260.137 161.512 259.521 161.84 258.801 162.072C258.081 162.304 257.289 162.42 256.425 162.42C255.561 162.42 254.769 162.304 254.049 162.072C253.329 161.84 252.709 161.512 252.189 161.088C251.677 160.656 251.277 160.136 250.989 159.528C250.709 158.92 250.569 158.24 250.569 157.488C250.569 156.4 250.845 155.5 251.397 154.788C251.957 154.076 252.773 153.56 253.845 153.24C252.957 152.904 252.289 152.404 251.841 151.74C251.393 151.068 251.169 150.272 251.169 149.352C251.169 148.712 251.293 148.116 251.541 147.564C251.797 147.004 252.153 146.52 252.609 146.112C253.073 145.704 253.629 145.384 254.277 145.152C254.925 144.92 255.641 144.804 256.425 144.804C257.209 144.804 257.925 144.92 258.573 145.152C259.221 145.384 259.773 145.704 260.229 146.112C260.693 146.52 261.049 147.004 261.297 147.564C261.553 148.116 261.681 148.712 261.681 149.352C261.681 150.272 261.457 151.068 261.009 151.74C260.561 152.404 259.893 152.904 259.005 153.24Z" fill="#E7EDF6"/>
<path d="M28.1445 190.021H30L35.498 176.222H32.7832L29.082 185.998L25.3613 176.222H22.6172L28.1445 190.021ZM34.5117 190.021H37.2168L38.291 187.023H43.6523L44.7168 190.021H47.3926L41.8945 176.222H40.0391L34.5117 190.021ZM39.1309 184.904L40.9766 179.865L42.8125 184.904H39.1309ZM49.2969 190.021H57.6758V187.677H51.7773V176.222H49.2969V190.021ZM59.6875 190.021H62.168V176.222H59.6875V190.021ZM65.7227 190.021H69.707C74.3457 190.021 76.9043 187.521 76.9043 183.224C76.9043 178.742 74.4238 176.222 69.7266 176.222H65.7227V190.021ZM68.2031 187.746V178.498H69.6875C73.0859 178.498 74.4238 179.845 74.4238 183.117C74.4238 186.564 72.5098 187.746 69.4629 187.746H68.2031ZM87.041 190.021H89.5215V178.439H93.8379V176.222H82.7148V178.439H87.041V190.021ZM95.8203 190.021H98.3008V184.259H104.346V190.021H106.826V176.222H104.346V181.984H98.3008V176.222H95.8203V190.021ZM110.391 190.041H112.871V184.123H114.531L117.93 190.041H120.771L116.934 183.879C118.496 183.341 119.629 182.023 119.629 180.285C119.629 177.697 117.432 176.222 114.854 176.222H110.391V190.041ZM112.891 182.101V178.439H114.873C116.289 178.439 117.178 179.181 117.178 180.324C117.178 181.359 116.396 182.043 115.078 182.101H112.891ZM127.734 190.216C131.436 190.216 133.018 188.019 133.018 184.543V176.222H130.537V184.357C130.537 186.584 129.961 187.824 127.734 187.824C125.518 187.824 124.932 186.584 124.932 184.357V176.222H122.461V184.64C122.461 188.019 124.033 190.216 127.734 190.216Z" fill="white"/>
<path d="M28.7858 201.842V218.642H26.4098V203.93H22.6178V201.842H28.7858ZM44.2686 216.554V218.642H32.1966V217.01L39.0366 210.41C39.8686 209.61 40.4286 208.922 40.7166 208.346C41.0046 207.754 41.1486 207.162 41.1486 206.57C41.1486 205.69 40.8366 205.01 40.2126 204.53C39.6046 204.034 38.7246 203.786 37.5726 203.786C35.7166 203.786 34.2846 204.394 33.2766 205.61L31.6446 204.194C32.3006 203.394 33.1566 202.77 34.2126 202.322C35.2846 201.874 36.4766 201.65 37.7886 201.65C39.5486 201.65 40.9486 202.074 41.9886 202.922C43.0286 203.754 43.5486 204.89 43.5486 206.33C43.5486 207.226 43.3566 208.074 42.9726 208.874C42.5886 209.674 41.8606 210.586 40.7886 211.61L35.6526 216.554H44.2686ZM52.5722 198.434H54.6602L46.7402 221.042H44.6522L52.5722 198.434ZM66.7217 216.554V218.642H54.6497V217.01L61.4897 210.41C62.3217 209.61 62.8817 208.922 63.1697 208.346C63.4577 207.754 63.6017 207.162 63.6017 206.57C63.6017 205.69 63.2897 205.01 62.6657 204.53C62.0577 204.034 61.1777 203.786 60.0257 203.786C58.1697 203.786 56.7377 204.394 55.7297 205.61L54.0977 204.194C54.7537 203.394 55.6097 202.77 56.6657 202.322C57.7377 201.874 58.9297 201.65 60.2417 201.65C62.0017 201.65 63.4017 202.074 64.4417 202.922C65.4817 203.754 66.0017 204.89 66.0017 206.33C66.0017 207.226 65.8097 208.074 65.4257 208.874C65.0417 209.674 64.3137 210.586 63.2417 211.61L58.1057 216.554H66.7217ZM74.143 201.65C76.399 201.65 78.135 202.378 79.351 203.834C80.583 205.29 81.199 207.354 81.199 210.026C81.199 211.898 80.863 213.498 80.191 214.826C79.535 216.138 78.607 217.138 77.407 217.826C76.223 218.498 74.839 218.834 73.255 218.834C72.439 218.834 71.671 218.754 70.951 218.594C70.231 218.418 69.607 218.17 69.079 217.85L69.991 215.978C70.807 216.506 71.887 216.77 73.231 216.77C74.975 216.77 76.335 216.234 77.311 215.162C78.303 214.074 78.799 212.498 78.799 210.434V209.834C78.319 210.554 77.655 211.106 76.807 211.49C75.959 211.858 75.007 212.042 73.951 212.042C72.847 212.042 71.855 211.834 70.975 211.418C70.111 211.002 69.431 210.41 68.935 209.642C68.455 208.858 68.215 207.962 68.215 206.954C68.215 205.898 68.471 204.97 68.983 204.17C69.511 203.37 70.223 202.754 71.119 202.322C72.015 201.874 73.023 201.65 74.143 201.65ZM74.359 210.098C75.111 210.098 75.783 209.954 76.375 209.666C76.967 209.378 77.423 208.986 77.743 208.49C78.079 207.994 78.247 207.442 78.247 206.834C78.247 206.242 78.087 205.706 77.767 205.226C77.463 204.73 77.007 204.338 76.399 204.05C75.807 203.746 75.087 203.594 74.239 203.594C73.135 203.594 72.239 203.89 71.551 204.482C70.879 205.074 70.543 205.866 70.543 206.858C70.543 207.85 70.887 208.642 71.575 209.234C72.263 209.81 73.191 210.098 74.359 210.098Z" fill="white"/>
<defs>
<filter id="filter0_b" x="-49.4644" y="-49.6247" width="519.278" height="360.566" filterUnits="userSpaceOnUse" color-interpolation-filters="sRGB">
<feFlood flood-opacity="0" result="BackgroundImageFix"/>
<feGaussianBlur in="BackgroundImage" stdDeviation="25"/>
<feComposite in2="SourceAlpha" operator="in" result="effect1_backgroundBlur"/>
<feBlend mode="normal" in="SourceGraphic" in2="effect1_backgroundBlur" result="shape"/>
</filter>
<radialGradient id="paint0_radial" cx="0" cy="0" r="1" gradientUnits="userSpaceOnUse" gradientTransform="translate(40.7739 34.8284) rotate(32.7702) scale(435.448 727.123)">
<stop stop-color="white" stop-opacity="0.7"/>
<stop offset="1" stop-color="white" stop-opacity="0.1"/>
</radialGradient>
</defs>
</svg>
