<svg width="22" height="20" viewBox="0 0 22 20" fill="none" xmlns="http://www.w3.org/2000/svg">
<path fill-rule="evenodd" clip-rule="evenodd" d="M19.1807 0H2.24035C1.07086 0 0.122803 0.89543 0.122803 2V18C0.122803 19.1046 1.07086 20 2.24035 20H10.7105V12.4706H7.53421V9.64706H10.7105V8.13082C10.7105 5.26024 12.2877 4 14.8662 4C16.0768 4 16.7281 4.08142 17.0446 4.12097L17.0632 4.12329V6.82353H15.3045C14.2101 6.82353 13.8868 7.35812 13.8868 8.44047V9.64706H17.0357L16.6004 12.4706H13.8868V20H19.1807C20.3502 20 21.2982 19.1046 21.2982 18V2C21.2982 0.89543 20.3502 0 19.1807 0Z" fill="#304659"/>
</svg>
