<svg width="22" height="20" viewBox="0 0 22 20" fill="none" xmlns="http://www.w3.org/2000/svg">
<path fill-rule="evenodd" clip-rule="evenodd" d="M6.82626 0H15.2964C18.8049 0 21.6491 2.68629 21.6491 6V14C21.6491 17.3137 18.8049 20 15.2964 20H6.82626C3.3178 20 0.473633 17.3137 0.473633 14V6C0.473633 2.68629 3.3178 0 6.82626 0ZM17.414 3C17.9434 3 18.4728 3.5 18.4728 4C18.4728 4.5 17.9434 5 17.414 5C16.8846 5 16.3552 4.5 16.3552 4C16.3552 3.5 16.8846 3 17.414 3ZM16.3552 10C16.3552 7.2425 13.9809 5 11.0614 5C8.14179 5 5.76749 7.2425 5.76749 10C5.76749 12.7575 8.14179 15 11.0614 15C13.9809 15 16.3552 12.7575 16.3552 10ZM11.0614 7C9.30712 7 7.88504 8.34315 7.88504 10C7.88504 11.6569 9.30712 13 11.0614 13C12.8156 13 14.2377 11.6569 14.2377 10C14.2377 8.34315 12.8156 7 11.0614 7Z" fill="#304659"/>
</svg>
