<svg width="22" height="20" viewBox="0 0 22 20" fill="none" xmlns="http://www.w3.org/2000/svg">
<path fill-rule="evenodd" clip-rule="evenodd" d="M19.8826 0H2.94225C1.77276 0 0.824707 0.89543 0.824707 2V18C0.824707 19.1046 1.77276 20 2.94225 20H19.8826C21.0521 20 22.0001 19.1046 22.0001 18V2C22.0001 0.89543 21.0521 0 19.8826 0ZM17.0771 6.23936C17.6922 6.1722 18.2783 6.02331 18.8238 5.80205C18.4162 6.35858 17.9003 6.84744 17.3057 7.23946C17.3114 7.35868 17.3142 7.47842 17.3142 7.59868C17.3142 11.2685 14.2563 15.5 8.66262 15.5C6.94495 15.5 5.347 15.0403 4.00102 14.2526C4.23932 14.2786 4.48161 14.2917 4.72674 14.2917C6.15196 14.2917 7.46316 13.8476 8.50356 13.1026C7.17298 13.0802 6.04991 12.2769 5.66282 11.1737C5.8481 11.2055 6.03908 11.2232 6.23462 11.2232C6.51225 11.2232 6.78133 11.1893 7.03616 11.1258C5.64458 10.8712 4.59676 9.74881 4.59676 8.40302V8.36814C5.00665 8.57587 5.47584 8.70081 5.97409 8.71539C5.1583 8.21769 4.62185 7.36753 4.62185 6.4044C4.62185 5.89472 4.77178 5.41784 5.03288 5.0076C6.53335 6.68813 8.77378 7.79391 11.301 7.90948C11.2497 7.70697 11.2223 7.49456 11.2223 7.27694C11.2223 5.74374 12.5837 4.5 14.2631 4.5C15.1377 4.5 15.9278 4.83736 16.4825 5.37723C17.1757 5.25228 17.8267 5.02113 18.4139 4.70304C18.187 5.35172 17.7053 5.89576 17.0771 6.23936Z" fill="#304659"/>
</svg>
